# xmcd CD database file
#
# Track frame offsets:
#	150
#	16260
#	30347
#	57822
#	78770
#	101665
#	123642
#	137177
#	151260
#	176895
#
# Disc length: 2658 seconds
#
# Revision: 0
# Processed by: cddbd v1.5.1PL0 Copyright (c) Steve Scherf et al.
# Submitted via: CDex 1.51
#
DISCID=770a600a
DTITLE=Various Artist - Memories of New Orleans
DYEAR=1998
DGENRE=Jazz
TTITLE0=Tim Laughlin \ When The Saints Go Marchin' In
TTITLE1=Tim Laughlin \ New Orleans
TTITLE2=Mike Vax \ Undecided
TTITLE3=Mike Vax \ Royal Street Shuffle
TTITLE4=Dixieland Ramblers \ Do You Know What It Means To Miss New Orleans
TTITLE5=Dixieland Ramblers \ Sweet Georgia Brown
TTITLE6=Dukes of Dixieland \ New Orleans Joy
TTITLE7=Dukes of Dixieland \ Canal Street Boogie
TTITLE8=New Orleans Nightcrawlers \ Bourbon Street Parade
TTITLE9=New Orleans Nightcrawlers \ Blueberry Hill
EXTD=YEAR: 1998
EXTT0=
EXTT1=
EXTT2=
EXTT3=
EXTT4=
EXTT5=
EXTT6=
EXTT7=
EXTT8=
EXTT9=
PLAYORDER=
